<svg width="254" height="276" viewBox="0 0 254 276" fill="none" xmlns="http://www.w3.org/2000/svg">
<path d="M0 5C0 2.23858 2.23858 0 5 0H249C251.761 0 254 2.23858 254 5V271C254 273.761 251.761 276 249 276H5C2.23857 276 0 273.761 0 271V5Z" fill="url(#paint0_linear_1493_6376)"/>
<g clip-path="url(#clip0_1493_6376)">
<path d="M32.8186 107.455C40.9046 83.7917 73.5998 83.0751 83.1866 105.305L83.9979 107.468L94.9099 139.379C97.4106 146.697 101.452 153.394 106.761 159.018C112.07 164.642 118.523 169.062 125.685 171.98L128.619 173.075L160.53 183.973C184.193 192.059 184.91 224.755 162.694 234.341L160.53 235.153L128.619 246.065C121.298 248.564 114.599 252.604 108.973 257.913C103.346 263.222 98.9244 269.676 96.0051 276.84L94.9099 279.76L84.0114 311.685C75.9255 335.348 43.2303 336.064 33.657 313.848L32.8186 311.685L21.9202 279.774C19.4211 272.453 15.3808 265.753 10.0718 260.127C4.76279 254.501 -1.69132 250.079 -8.85497 247.16L-11.7756 246.065L-43.6866 235.166C-67.363 227.08 -68.0796 194.385 -45.8501 184.812L-43.6866 183.973L-11.7756 173.075C-4.45729 170.574 2.23965 166.533 7.86346 161.224C13.4873 155.915 17.9072 149.462 20.825 142.3L21.9202 139.379L32.8186 107.455ZM58.415 116.189L47.5166 148.101C43.7088 159.26 37.5143 169.455 29.3643 177.976C21.2144 186.498 11.305 193.14 0.326202 197.441L-3.0542 198.671L-34.9652 209.57L-3.0542 220.468C8.10522 224.276 18.3005 230.471 26.8217 238.62C35.343 246.77 41.9853 256.68 46.2861 267.659L47.5166 271.039L58.415 302.95L69.3134 271.039C73.1213 259.88 79.3158 249.684 87.4657 241.163C95.6156 232.642 105.525 225.999 116.504 221.699L119.884 220.482L151.795 209.57L119.884 198.671C108.725 194.864 98.5295 188.669 90.0083 180.519C81.4871 172.369 74.8448 162.46 70.5439 151.481L69.327 148.101L58.415 116.189ZM166.588 60.832C169.118 60.832 171.596 61.5416 173.743 62.8802C175.889 64.2187 177.617 66.1325 178.73 68.4041L179.379 69.9862L184.112 83.8593L197.999 88.5919C200.534 89.4532 202.756 91.0476 204.384 93.1732C206.012 95.2988 206.972 97.8599 207.143 100.532C207.314 103.204 206.688 105.866 205.344 108.182C204 110.497 201.999 112.362 199.594 113.539L197.999 114.188L184.125 118.921L179.393 132.808C178.53 135.342 176.934 137.563 174.808 139.19C172.682 140.816 170.12 141.775 167.448 141.944C164.777 142.114 162.115 141.486 159.8 140.141C157.485 138.796 155.622 136.795 154.445 134.39L153.796 132.808L149.064 118.934L135.177 114.202C132.642 113.341 130.42 111.746 128.792 109.62C127.164 107.495 126.204 104.934 126.033 102.262C125.862 99.5901 126.488 96.9276 127.832 94.6119C129.176 92.2962 131.177 90.4317 133.582 89.2545L135.177 88.6054L149.05 83.8729L153.783 69.9862C154.695 67.3146 156.42 64.9955 158.716 63.3538C161.012 61.7121 163.765 60.8303 166.588 60.832Z" fill="url(#paint1_linear_1493_6376)"/>
</g>
<g filter="url(#filter0_b_1493_6376)">
<rect x="24" y="192" width="151" height="36" rx="8" fill="white" fill-opacity="0.5"/>
<path d="M33.46 217V203H35.62V208.82H35.94L41.16 203H43.98L37.66 209.9L44.2 217H41.3L35.94 211.06H35.62V217H33.46ZM45.8833 217V207.14H47.9033V208.62H48.2233C48.4099 208.22 48.7433 207.847 49.2233 207.5C49.7033 207.153 50.4166 206.98 51.3633 206.98C52.1099 206.98 52.7699 207.147 53.3433 207.48C53.9299 207.813 54.3899 208.287 54.7233 208.9C55.0566 209.5 55.2233 210.227 55.2233 211.08V217H53.1633V211.24C53.1633 210.387 52.9499 209.76 52.5233 209.36C52.0966 208.947 51.5099 208.74 50.7633 208.74C49.9099 208.74 49.2233 209.02 48.7033 209.58C48.1966 210.14 47.9433 210.953 47.9433 212.02V217H45.8833ZM62.808 217.28C61.8213 217.28 60.9413 217.08 60.168 216.68C59.408 216.267 58.808 215.68 58.368 214.92C57.928 214.16 57.708 213.26 57.708 212.22V211.92C57.708 210.88 57.928 209.987 58.368 209.24C58.808 208.48 59.408 207.893 60.168 207.48C60.9413 207.067 61.8213 206.86 62.808 206.86C63.7946 206.86 64.6746 207.067 65.448 207.48C66.2213 207.893 66.828 208.48 67.268 209.24C67.708 209.987 67.928 210.88 67.928 211.92V212.22C67.928 213.26 67.708 214.16 67.268 214.92C66.828 215.68 66.2213 216.267 65.448 216.68C64.6746 217.08 63.7946 217.28 62.808 217.28ZM62.808 215.44C63.7146 215.44 64.448 215.153 65.008 214.58C65.5813 213.993 65.868 213.187 65.868 212.16V211.98C65.868 210.953 65.588 210.153 65.028 209.58C64.468 208.993 63.728 208.7 62.808 208.7C61.9146 208.7 61.1813 208.993 60.608 209.58C60.048 210.153 59.768 210.953 59.768 211.98V212.16C59.768 213.187 60.048 213.993 60.608 214.58C61.1813 215.153 61.9146 215.44 62.808 215.44ZM71.4555 217L69.7755 207.14H71.8355L73.0755 215.62H73.3955L75.1155 207.14H78.4555L80.1555 215.62H80.4755L81.7155 207.14H83.7755L82.0955 217H78.6355L76.9355 208.54H76.6155L74.9155 217H71.4555ZM91.313 217V207.14H93.333V208.3H93.653C93.8396 207.953 94.1396 207.647 94.553 207.38C94.9663 207.113 95.5263 206.98 96.233 206.98C96.9663 206.98 97.553 207.133 97.993 207.44C98.4463 207.733 98.7863 208.113 99.013 208.58H99.333C99.5596 208.127 99.8863 207.747 100.313 207.44C100.753 207.133 101.373 206.98 102.173 206.98C102.813 206.98 103.38 207.113 103.873 207.38C104.366 207.633 104.76 208.02 105.053 208.54C105.346 209.047 105.493 209.68 105.493 210.44V217H103.433V210.6C103.433 210 103.266 209.54 102.933 209.22C102.613 208.887 102.153 208.72 101.553 208.72C100.913 208.72 100.4 208.927 100.013 209.34C99.6263 209.753 99.433 210.347 99.433 211.12V217H97.373V210.6C97.373 210 97.2063 209.54 96.873 209.22C96.553 208.887 96.093 208.72 95.493 208.72C94.853 208.72 94.3396 208.927 93.953 209.34C93.5663 209.753 93.373 210.347 93.373 211.12V217H91.313ZM113.081 217.28C112.095 217.28 111.215 217.08 110.441 216.68C109.681 216.267 109.081 215.68 108.641 214.92C108.201 214.16 107.981 213.26 107.981 212.22V211.92C107.981 210.88 108.201 209.987 108.641 209.24C109.081 208.48 109.681 207.893 110.441 207.48C111.215 207.067 112.095 206.86 113.081 206.86C114.068 206.86 114.948 207.067 115.721 207.48C116.495 207.893 117.101 208.48 117.541 209.24C117.981 209.987 118.201 210.88 118.201 211.92V212.22C118.201 213.26 117.981 214.16 117.541 214.92C117.101 215.68 116.495 216.267 115.721 216.68C114.948 217.08 114.068 217.28 113.081 217.28ZM113.081 215.44C113.988 215.44 114.721 215.153 115.281 214.58C115.855 213.993 116.141 213.187 116.141 212.16V211.98C116.141 210.953 115.861 210.153 115.301 209.58C114.741 208.993 114.001 208.7 113.081 208.7C112.188 208.7 111.455 208.993 110.881 209.58C110.321 210.153 110.041 210.953 110.041 211.98V212.16C110.041 213.187 110.321 213.993 110.881 214.58C111.455 215.153 112.188 215.44 113.081 215.44ZM120.766 217V207.14H122.786V208.3H123.106C123.266 207.887 123.519 207.587 123.866 207.4C124.226 207.2 124.666 207.1 125.186 207.1H126.366V208.96H125.106C124.439 208.96 123.893 209.147 123.466 209.52C123.039 209.88 122.826 210.44 122.826 211.2V217H120.766ZM132.669 217.28C131.669 217.28 130.796 217.073 130.049 216.66C129.302 216.233 128.716 215.64 128.289 214.88C127.876 214.107 127.669 213.213 127.669 212.2V211.96C127.669 210.933 127.876 210.04 128.289 209.28C128.702 208.507 129.276 207.913 130.009 207.5C130.756 207.073 131.616 206.86 132.589 206.86C133.536 206.86 134.362 207.073 135.069 207.5C135.789 207.913 136.349 208.493 136.749 209.24C137.149 209.987 137.349 210.86 137.349 211.86V212.64H129.769C129.796 213.507 130.082 214.2 130.629 214.72C131.189 215.227 131.882 215.48 132.709 215.48C133.482 215.48 134.062 215.307 134.449 214.96C134.849 214.613 135.156 214.213 135.369 213.76L137.069 214.64C136.882 215.013 136.609 215.407 136.249 215.82C135.902 216.233 135.442 216.58 134.869 216.86C134.296 217.14 133.562 217.28 132.669 217.28ZM129.789 211.06H135.249C135.196 210.313 134.929 209.733 134.449 209.32C133.969 208.893 133.342 208.68 132.569 208.68C131.796 208.68 131.162 208.893 130.669 209.32C130.189 209.733 129.896 210.313 129.789 211.06Z" fill="#E94C17"/>
<path d="M148 210H162" stroke="#E94C17" stroke-width="2" stroke-linecap="round" stroke-linejoin="round"/>
<path d="M155 203L162 210L155 217" stroke="#E94C17" stroke-width="2" stroke-linecap="round" stroke-linejoin="round"/>
</g>
<path d="M26.112 54V31.6H40.512V35.44H30.336V40.784H39.616V44.624H30.336V50.16H40.704V54H26.112ZM42.5508 54L48.3108 46L42.6148 38.128H47.2868L50.9028 43.408H51.4788L55.0948 38.128H59.7668L54.0708 46L59.8308 54H55.0948L51.4788 48.656H50.9028L47.2868 54H42.5508ZM62.8963 60.4V38.128H66.8643V40.048H67.4403C67.8029 39.4293 68.3683 38.8853 69.1363 38.416C69.9043 37.9253 71.0029 37.68 72.4323 37.68C73.7123 37.68 74.8963 38 75.9843 38.64C77.0723 39.2587 77.9469 40.176 78.6083 41.392C79.2696 42.608 79.6003 44.08 79.6003 45.808V46.32C79.6003 48.048 79.2696 49.52 78.6083 50.736C77.9469 51.952 77.0723 52.88 75.9843 53.52C74.8963 54.1387 73.7123 54.448 72.4323 54.448C71.4723 54.448 70.6616 54.3307 70.0003 54.096C69.3603 53.8827 68.8376 53.6053 68.4323 53.264C68.0483 52.9013 67.7389 52.5387 67.5043 52.176H66.9283V60.4H62.8963ZM71.2163 50.928C72.4749 50.928 73.5096 50.5333 74.3203 49.744C75.1523 48.9333 75.5683 47.76 75.5683 46.224V45.904C75.5683 44.368 75.1523 43.2053 74.3203 42.416C73.4883 41.6053 72.4536 41.2 71.2163 41.2C69.9789 41.2 68.9443 41.6053 68.1123 42.416C67.2803 43.2053 66.8643 44.368 66.8643 45.904V46.224C66.8643 47.76 67.2803 48.9333 68.1123 49.744C68.9443 50.5333 69.9789 50.928 71.2163 50.928ZM83.3025 54V31.6H87.3345V54H83.3025ZM99.3545 54.448C97.7758 54.448 96.3572 54.128 95.0985 53.488C93.8398 52.848 92.8478 51.92 92.1225 50.704C91.3972 49.488 91.0345 48.0267 91.0345 46.32V45.808C91.0345 44.1013 91.3972 42.64 92.1225 41.424C92.8478 40.208 93.8398 39.28 95.0985 38.64C96.3572 38 97.7758 37.68 99.3545 37.68C100.933 37.68 102.352 38 103.611 38.64C104.869 39.28 105.861 40.208 106.587 41.424C107.312 42.64 107.675 44.1013 107.675 45.808V46.32C107.675 48.0267 107.312 49.488 106.587 50.704C105.861 51.92 104.869 52.848 103.611 53.488C102.352 54.128 100.933 54.448 99.3545 54.448ZM99.3545 50.864C100.592 50.864 101.616 50.4693 102.427 49.68C103.237 48.8693 103.643 47.7173 103.643 46.224V45.904C103.643 44.4107 103.237 43.2693 102.427 42.48C101.637 41.6693 100.613 41.264 99.3545 41.264C98.1172 41.264 97.0932 41.6693 96.2825 42.48C95.4718 43.2693 95.0665 44.4107 95.0665 45.904V46.224C95.0665 47.7173 95.4718 48.8693 96.2825 49.68C97.0932 50.4693 98.1172 50.864 99.3545 50.864ZM111.396 54V38.128H115.364V39.92H115.94C116.175 39.28 116.559 38.8107 117.092 38.512C117.647 38.2133 118.287 38.064 119.012 38.064H120.932V41.648H118.948C117.924 41.648 117.082 41.9253 116.42 42.48C115.759 43.0133 115.428 43.8453 115.428 44.976V54H111.396ZM130.753 54.448C129.175 54.448 127.777 54.1173 126.561 53.456C125.367 52.7733 124.428 51.824 123.745 50.608C123.084 49.3707 122.753 47.92 122.753 46.256V45.872C122.753 44.208 123.084 42.768 123.745 41.552C124.407 40.3147 125.335 39.3653 126.529 38.704C127.724 38.0213 129.111 37.68 130.689 37.68C132.247 37.68 133.601 38.032 134.753 38.736C135.905 39.4187 136.801 40.3787 137.441 41.616C138.081 42.832 138.401 44.2507 138.401 45.872V47.248H126.849C126.892 48.336 127.297 49.2213 128.065 49.904C128.833 50.5867 129.772 50.928 130.881 50.928C132.012 50.928 132.844 50.6827 133.377 50.192C133.911 49.7013 134.316 49.1573 134.593 48.56L137.889 50.288C137.591 50.8427 137.153 51.4507 136.577 52.112C136.023 52.752 135.276 53.3067 134.337 53.776C133.399 54.224 132.204 54.448 130.753 54.448ZM126.881 44.24H134.305C134.22 43.3227 133.847 42.5867 133.185 42.032C132.545 41.4773 131.703 41.2 130.657 41.2C129.569 41.2 128.705 41.4773 128.065 42.032C127.425 42.5867 127.031 43.3227 126.881 44.24ZM32.32 92C31.2747 92 30.4213 91.68 29.76 91.04C29.12 90.3787 28.8 89.504 28.8 88.416V79.456H24.832V76.128H28.8V71.2H32.832V76.128H37.184V79.456H32.832V87.712C32.832 88.352 33.1307 88.672 33.728 88.672H36.8V92H32.32ZM40.8338 92V69.6H44.8658V78.08H45.4418C45.6124 77.7387 45.8791 77.3973 46.2418 77.056C46.6044 76.7147 47.0844 76.4373 47.6818 76.224C48.3004 75.9893 49.0791 75.872 50.0178 75.872C51.2551 75.872 52.3324 76.16 53.2498 76.736C54.1884 77.2907 54.9138 78.0693 55.4258 79.072C55.9378 80.0533 56.1938 81.2053 56.1938 82.528V92H52.1618V82.848C52.1618 81.6533 51.8631 80.7573 51.2658 80.16C50.6898 79.5627 49.8578 79.264 48.7698 79.264C47.5324 79.264 46.5724 79.68 45.8898 80.512C45.2071 81.3227 44.8658 82.464 44.8658 83.936V92H40.8338ZM67.7845 92.448C66.2058 92.448 64.8085 92.1173 63.5925 91.456C62.3978 90.7733 61.4592 89.824 60.7765 88.608C60.1152 87.3707 59.7845 85.92 59.7845 84.256V83.872C59.7845 82.208 60.1152 80.768 60.7765 79.552C61.4378 78.3147 62.3658 77.3653 63.5605 76.704C64.7552 76.0213 66.1418 75.68 67.7205 75.68C69.2778 75.68 70.6325 76.032 71.7845 76.736C72.9365 77.4187 73.8325 78.3787 74.4725 79.616C75.1125 80.832 75.4325 82.2507 75.4325 83.872V85.248H63.8805C63.9232 86.336 64.3285 87.2213 65.0965 87.904C65.8645 88.5867 66.8032 88.928 67.9125 88.928C69.0432 88.928 69.8752 88.6827 70.4085 88.192C70.9418 87.7013 71.3472 87.1573 71.6245 86.56L74.9205 88.288C74.6218 88.8427 74.1845 89.4507 73.6085 90.112C73.0538 90.752 72.3072 91.3067 71.3685 91.776C70.4298 92.224 69.2352 92.448 67.7845 92.448ZM63.9125 82.24H71.3365C71.2512 81.3227 70.8778 80.5867 70.2165 80.032C69.5765 79.4773 68.7338 79.2 67.6885 79.2C66.6005 79.2 65.7365 79.4773 65.0965 80.032C64.4565 80.5867 64.0618 81.3227 63.9125 82.24ZM88.4263 92L86.1863 76.128H90.1863L91.5943 89.28H92.1703L94.2183 76.128H100.682L102.73 89.28H103.306L104.714 76.128H108.714L106.474 92H99.7863L97.7383 78.848H97.1623L95.1143 92H88.4263ZM119.73 92.448C118.151 92.448 116.732 92.128 115.474 91.488C114.215 90.848 113.223 89.92 112.498 88.704C111.772 87.488 111.41 86.0267 111.41 84.32V83.808C111.41 82.1013 111.772 80.64 112.498 79.424C113.223 78.208 114.215 77.28 115.474 76.64C116.732 76 118.151 75.68 119.73 75.68C121.308 75.68 122.727 76 123.986 76.64C125.244 77.28 126.236 78.208 126.962 79.424C127.687 80.64 128.05 82.1013 128.05 83.808V84.32C128.05 86.0267 127.687 87.488 126.962 88.704C126.236 89.92 125.244 90.848 123.986 91.488C122.727 92.128 121.308 92.448 119.73 92.448ZM119.73 88.864C120.967 88.864 121.991 88.4693 122.802 87.68C123.612 86.8693 124.018 85.7173 124.018 84.224V83.904C124.018 82.4107 123.612 81.2693 122.802 80.48C122.012 79.6693 120.988 79.264 119.73 79.264C118.492 79.264 117.468 79.6693 116.658 80.48C115.847 81.2693 115.442 82.4107 115.442 83.904V84.224C115.442 85.7173 115.847 86.8693 116.658 87.68C117.468 88.4693 118.492 88.864 119.73 88.864ZM131.771 92V76.128H135.739V77.92H136.315C136.55 77.28 136.934 76.8107 137.467 76.512C138.022 76.2133 138.662 76.064 139.387 76.064H141.307V79.648H139.323C138.299 79.648 137.457 79.9253 136.795 80.48C136.134 81.0133 135.803 81.8453 135.803 82.976V92H131.771ZM144.459 92V69.6H148.491V92H144.459ZM159.359 92.448C158.1 92.448 156.916 92.1387 155.807 91.52C154.719 90.88 153.844 89.952 153.183 88.736C152.521 87.52 152.191 86.048 152.191 84.32V83.808C152.191 82.08 152.521 80.608 153.183 79.392C153.844 78.176 154.719 77.2587 155.807 76.64C156.895 76 158.079 75.68 159.359 75.68C160.319 75.68 161.119 75.7973 161.759 76.032C162.42 76.2453 162.953 76.5227 163.359 76.864C163.764 77.2053 164.073 77.568 164.287 77.952H164.863V69.6H168.895V92H164.927V90.08H164.351C163.988 90.6773 163.423 91.2213 162.655 91.712C161.908 92.2027 160.809 92.448 159.359 92.448ZM160.575 88.928C161.812 88.928 162.847 88.5333 163.679 87.744C164.511 86.9333 164.927 85.76 164.927 84.224V83.904C164.927 82.368 164.511 81.2053 163.679 80.416C162.868 79.6053 161.833 79.2 160.575 79.2C159.337 79.2 158.303 79.6053 157.471 80.416C156.639 81.2053 156.223 82.368 156.223 83.904V84.224C156.223 85.76 156.639 86.9333 157.471 87.744C158.303 88.5333 159.337 88.928 160.575 88.928ZM189.042 92.448C187.463 92.448 186.045 92.128 184.786 91.488C183.527 90.848 182.535 89.92 181.81 88.704C181.085 87.488 180.722 86.0267 180.722 84.32V83.808C180.722 82.1013 181.085 80.64 181.81 79.424C182.535 78.208 183.527 77.28 184.786 76.64C186.045 76 187.463 75.68 189.042 75.68C190.621 75.68 192.039 76 193.298 76.64C194.557 77.28 195.549 78.208 196.274 79.424C196.999 80.64 197.362 82.1013 197.362 83.808V84.32C197.362 86.0267 196.999 87.488 196.274 88.704C195.549 89.92 194.557 90.848 193.298 91.488C192.039 92.128 190.621 92.448 189.042 92.448ZM189.042 88.864C190.279 88.864 191.303 88.4693 192.114 87.68C192.925 86.8693 193.33 85.7173 193.33 84.224V83.904C193.33 82.4107 192.925 81.2693 192.114 80.48C191.325 79.6693 190.301 79.264 189.042 79.264C187.805 79.264 186.781 79.6693 185.97 80.48C185.159 81.2693 184.754 82.4107 184.754 83.904V84.224C184.754 85.7173 185.159 86.8693 185.97 87.68C186.781 88.4693 187.805 88.864 189.042 88.864ZM203.177 92V79.456H199.145V76.128H203.177V73.184C203.177 72.096 203.497 71.232 204.137 70.592C204.798 69.9307 205.651 69.6 206.697 69.6H210.857V72.928H208.105C207.507 72.928 207.209 73.248 207.209 73.888V76.128H211.369V79.456H207.209V92H203.177ZM26.24 168V152.128H30.272V168H26.24ZM28.256 150.272C27.5307 150.272 26.912 150.037 26.4 149.568C25.9093 149.099 25.664 148.48 25.664 147.712C25.664 146.944 25.9093 146.325 26.4 145.856C26.912 145.387 27.5307 145.152 28.256 145.152C29.0027 145.152 29.6213 145.387 30.112 145.856C30.6027 146.325 30.848 146.944 30.848 147.712C30.848 148.48 30.6027 149.099 30.112 149.568C29.6213 150.037 29.0027 150.272 28.256 150.272ZM34.74 168V152.128H38.708V154.208H39.284C39.54 153.653 40.02 153.131 40.724 152.64C41.428 152.128 42.4947 151.872 43.924 151.872C45.1613 151.872 46.2387 152.16 47.156 152.736C48.0947 153.291 48.82 154.069 49.332 155.072C49.844 156.053 50.1 157.205 50.1 158.528V168H46.068V158.848C46.068 157.653 45.7693 156.757 45.172 156.16C44.596 155.563 43.764 155.264 42.676 155.264C41.4387 155.264 40.4787 155.68 39.796 156.512C39.1133 157.323 38.772 158.464 38.772 159.936V168H34.74ZM61.8158 168V164.288H64.7598V149.312H61.8158V145.6H71.0318C74.0398 145.6 76.3224 146.368 77.8798 147.904C79.4584 149.419 80.2478 151.68 80.2478 154.688V158.912C80.2478 161.92 79.4584 164.192 77.8798 165.728C76.3224 167.243 74.0398 168 71.0318 168H61.8158ZM68.9838 164.16H71.0958C72.8024 164.16 74.0504 163.712 74.8398 162.816C75.6291 161.92 76.0238 160.661 76.0238 159.04V154.56C76.0238 152.917 75.6291 151.659 74.8398 150.784C74.0504 149.888 72.8024 149.44 71.0958 149.44H68.9838V164.16ZM91.1283 168.448C89.5496 168.448 88.1523 168.117 86.9363 167.456C85.7416 166.773 84.8029 165.824 84.1203 164.608C83.4589 163.371 83.1283 161.92 83.1283 160.256V159.872C83.1283 158.208 83.4589 156.768 84.1203 155.552C84.7816 154.315 85.7096 153.365 86.9043 152.704C88.0989 152.021 89.4856 151.68 91.0642 151.68C92.6216 151.68 93.9763 152.032 95.1283 152.736C96.2803 153.419 97.1763 154.379 97.8162 155.616C98.4563 156.832 98.7763 158.251 98.7763 159.872V161.248H87.2243C87.2669 162.336 87.6723 163.221 88.4403 163.904C89.2083 164.587 90.1469 164.928 91.2563 164.928C92.3869 164.928 93.2189 164.683 93.7523 164.192C94.2856 163.701 94.6909 163.157 94.9683 162.56L98.2643 164.288C97.9656 164.843 97.5283 165.451 96.9523 166.112C96.3976 166.752 95.6509 167.307 94.7123 167.776C93.7736 168.224 92.5789 168.448 91.1283 168.448ZM87.2563 158.24H94.6803C94.5949 157.323 94.2216 156.587 93.5603 156.032C92.9203 155.477 92.0776 155.2 91.0323 155.2C89.9443 155.2 89.0803 155.477 88.4403 156.032C87.8003 156.587 87.4056 157.323 87.2563 158.24ZM102.365 168V145.6H106.397V168H102.365ZM110.865 174.4V152.128H114.833V154.048H115.409C115.772 153.429 116.337 152.885 117.105 152.416C117.873 151.925 118.972 151.68 120.401 151.68C121.681 151.68 122.865 152 123.953 152.64C125.041 153.259 125.916 154.176 126.577 155.392C127.238 156.608 127.569 158.08 127.569 159.808V160.32C127.569 162.048 127.238 163.52 126.577 164.736C125.916 165.952 125.041 166.88 123.953 167.52C122.865 168.139 121.681 168.448 120.401 168.448C119.441 168.448 118.63 168.331 117.969 168.096C117.329 167.883 116.806 167.605 116.401 167.264C116.017 166.901 115.708 166.539 115.473 166.176H114.897V174.4H110.865ZM119.185 164.928C120.444 164.928 121.478 164.533 122.289 163.744C123.121 162.933 123.537 161.76 123.537 160.224V159.904C123.537 158.368 123.121 157.205 122.289 156.416C121.457 155.605 120.422 155.2 119.185 155.2C117.948 155.2 116.913 155.605 116.081 156.416C115.249 157.205 114.833 158.368 114.833 159.904V160.224C114.833 161.76 115.249 162.933 116.081 163.744C116.913 164.533 117.948 164.928 119.185 164.928ZM131.271 168V145.6H135.303V154.08H135.879C136.05 153.739 136.317 153.397 136.679 153.056C137.042 152.715 137.522 152.437 138.119 152.224C138.738 151.989 139.517 151.872 140.455 151.872C141.693 151.872 142.77 152.16 143.687 152.736C144.626 153.291 145.351 154.069 145.863 155.072C146.375 156.053 146.631 157.205 146.631 158.528V168H142.599V158.848C142.599 157.653 142.301 156.757 141.703 156.16C141.127 155.563 140.295 155.264 139.207 155.264C137.97 155.264 137.01 155.68 136.327 156.512C135.645 157.323 135.303 158.464 135.303 159.936V168H131.271ZM150.99 168V152.128H155.022V168H150.99ZM153.006 150.272C152.281 150.272 151.662 150.037 151.15 149.568C150.659 149.099 150.414 148.48 150.414 147.712C150.414 146.944 150.659 146.325 151.15 145.856C151.662 145.387 152.281 145.152 153.006 145.152C153.753 145.152 154.371 145.387 154.862 145.856C155.353 146.325 155.598 146.944 155.598 147.712C155.598 148.48 155.353 149.099 154.862 149.568C154.371 150.037 153.753 150.272 153.006 150.272Z" fill="white"/>
<path d="M24.576 130L30.464 107.6H37.824L43.712 130H39.36L38.144 125.072H30.144L28.928 130H24.576ZM31.136 121.168H37.152L34.432 110.256H33.856L31.136 121.168ZM46.3932 130V107.6H50.6173V130H46.3932Z" fill="#009ED3"/>
<defs>
<filter id="filter0_b_1493_6376" x="22" y="190" width="155" height="40" filterUnits="userSpaceOnUse" color-interpolation-filters="sRGB">
<feFlood flood-opacity="0" result="BackgroundImageFix"/>
<feGaussianBlur in="BackgroundImageFix" stdDeviation="1"/>
<feComposite in2="SourceAlpha" operator="in" result="effect1_backgroundBlur_1493_6376"/>
<feBlend mode="normal" in="SourceGraphic" in2="effect1_backgroundBlur_1493_6376" result="shape"/>
</filter>
<linearGradient id="paint0_linear_1493_6376" x1="171" y1="325.5" x2="67.2034" y2="-15.7808" gradientUnits="userSpaceOnUse">
<stop offset="0.08" stop-color="#E94C17" stop-opacity="0.5"/>
<stop offset="0.945" stop-color="#17B4E9" stop-opacity="0.3"/>
</linearGradient>
<linearGradient id="paint1_linear_1493_6376" x1="72.5853" y1="60.832" x2="72.5853" y2="329.988" gradientUnits="userSpaceOnUse">
<stop offset="0.11" stop-color="#17B4E9" stop-opacity="0.2"/>
<stop offset="0.865" stop-color="#E94C17" stop-opacity="0.3"/>
</linearGradient>
<clipPath id="clip0_1493_6376">
<rect width="224" height="248" fill="white" transform="translate(0 28)"/>
</clipPath>
</defs>
</svg>
