<svg width="30" height="30" viewBox="0 0 30 30" fill="none" xmlns="http://www.w3.org/2000/svg">
<path d="M21.668 1.66602H8.33463C4.65274 1.66602 1.66797 4.65078 1.66797 8.33268V21.666C1.66797 25.3479 4.65274 28.3327 8.33463 28.3327H21.668C25.3499 28.3327 28.3346 25.3479 28.3346 21.666V8.33268C28.3346 4.65078 25.3499 1.66602 21.668 1.66602Z" stroke="#17B4E9" stroke-width="2" stroke-linecap="round" stroke-linejoin="round"/>
<path d="M20.3355 14.1604C20.5001 15.2701 20.3106 16.4034 19.7939 17.3991C19.2772 18.3948 18.4597 19.2023 17.4577 19.7066C16.4557 20.211 15.3201 20.3865 14.2126 20.2083C13.105 20.0301 12.0819 19.5072 11.2887 18.714C10.4954 17.9207 9.97252 16.8976 9.7943 15.79C9.61608 14.6825 9.79163 13.5469 10.296 12.5449C10.8003 11.5429 11.6078 10.7254 12.6035 10.2087C13.5993 9.69206 14.7326 9.50252 15.8422 9.66707C16.9741 9.83491 18.022 10.3624 18.8311 11.1715C19.6403 11.9806 20.1677 13.0285 20.3355 14.1604Z" stroke="#17B4E9" stroke-width="2" stroke-linecap="round" stroke-linejoin="round"/>
<path d="M22.3359 7.66602H22.3493" stroke="#17B4E9" stroke-width="2" stroke-linecap="round" stroke-linejoin="round"/>
</svg>
