<svg width="24" height="24" viewBox="0 0 24 24" fill="none" xmlns="http://www.w3.org/2000/svg">
<mask id="path-1-inside-1_1327_4901" fill="white">
<path d="M12.5922 23.2584L12.5802 23.2604L12.5092 23.2954L12.4892 23.2994L12.4752 23.2954L12.4042 23.2594C12.3936 23.2568 12.3856 23.2588 12.3802 23.2654L12.3762 23.2754L12.3592 23.7034L12.3642 23.7234L12.3742 23.7364L12.4782 23.8104L12.4932 23.8144L12.5052 23.8104L12.6092 23.7364L12.6212 23.7204L12.6252 23.7034L12.6082 23.2764C12.6056 23.2658 12.6002 23.2598 12.5922 23.2584ZM12.8562 23.1454L12.8422 23.1474L12.6582 23.2404L12.6482 23.2504L12.6452 23.2614L12.6632 23.6914L12.6682 23.7034L12.6762 23.7114L12.8772 23.8034C12.8899 23.8068 12.8996 23.8041 12.9062 23.7954L12.9102 23.7814L12.8762 23.1674C12.8729 23.1548 12.8662 23.1474 12.8562 23.1454ZM12.1412 23.1474C12.1368 23.1448 12.1315 23.1439 12.1265 23.145C12.1215 23.1461 12.1171 23.1491 12.1142 23.1534L12.1082 23.1674L12.0742 23.7814C12.0749 23.7934 12.0806 23.8014 12.0912 23.8054L12.1062 23.8034L12.3072 23.7104L12.3172 23.7024L12.3202 23.6914L12.3382 23.2614L12.3352 23.2494L12.3252 23.2394L12.1412 23.1474Z"/>
</mask>
<path d="M12.5922 23.2584L12.7566 22.272L12.5922 22.2446L12.4278 22.272L12.5922 23.2584ZM12.5802 23.2604L12.4158 22.274L12.2703 22.2983L12.1381 22.3635L12.5802 23.2604ZM12.5092 23.2954L12.7053 24.276L12.8338 24.2503L12.9514 24.1924L12.5092 23.2954ZM12.4892 23.2994L12.2145 24.261L12.4476 24.3275L12.6853 24.28L12.4892 23.2994ZM12.4752 23.2954L12.023 24.1873L12.1084 24.2306L12.2005 24.257L12.4752 23.2954ZM12.4042 23.2594L12.8564 22.3675L12.756 22.3166L12.6468 22.2893L12.4042 23.2594ZM12.3802 23.2654L11.5993 22.6407L11.5068 22.7565L11.4517 22.8941L12.3802 23.2654ZM12.3762 23.2754L11.4477 22.9041L11.3838 23.0638L11.377 23.2357L12.3762 23.2754ZM12.3592 23.7034L11.36 23.6637L11.3543 23.8069L11.3891 23.946L12.3592 23.7034ZM12.3642 23.7234L11.3941 23.966L11.4446 24.168L11.5716 24.3331L12.3642 23.7234ZM12.3742 23.7364L11.5816 24.3461L11.6727 24.4646L11.7945 24.5512L12.3742 23.7364ZM12.4782 23.8104L11.8985 24.6252L12.0458 24.7301L12.2206 24.7767L12.4782 23.8104ZM12.4932 23.8144L12.2356 24.7807L12.5251 24.8579L12.8094 24.7631L12.4932 23.8144ZM12.5052 23.8104L12.8214 24.7591L12.9632 24.7119L13.085 24.6252L12.5052 23.8104ZM12.6092 23.7364L13.189 24.5512L13.3158 24.461L13.4092 24.3364L12.6092 23.7364ZM12.6212 23.7204L13.4212 24.3204L13.5467 24.1531L13.5946 23.9494L12.6212 23.7204ZM12.6252 23.7034L13.5986 23.9324L13.6298 23.7998L13.6244 23.6636L12.6252 23.7034ZM12.6082 23.2764L13.6074 23.2366L13.6033 23.1338L13.5784 23.0339L12.6082 23.2764ZM12.8562 23.1454L13.0523 22.1648L12.8844 22.1313L12.7149 22.1555L12.8562 23.1454ZM12.8422 23.1474L12.7009 22.1575L12.538 22.1807L12.3911 22.2549L12.8422 23.1474ZM12.6582 23.2404L12.2071 22.3479L12.0643 22.4201L11.9511 22.5333L12.6582 23.2404ZM12.6482 23.2504L11.9411 22.5433L11.7533 22.7311L11.6834 22.9874L12.6482 23.2504ZM12.6452 23.2614L11.6804 22.9984L11.6396 23.1481L11.6461 23.3032L12.6452 23.2614ZM12.6632 23.6914L11.6641 23.7332L11.6716 23.9114L11.7402 24.0761L12.6632 23.6914ZM12.6682 23.7034L11.7452 24.0881L11.8212 24.2706L11.9611 24.4105L12.6682 23.7034ZM12.6762 23.7114L11.9691 24.4185L12.0964 24.5458L12.26 24.6207L12.6762 23.7114ZM12.8772 23.8034L12.461 24.7127L12.5394 24.7486L12.6227 24.7705L12.8772 23.8034ZM12.9062 23.7954L13.6988 24.4051L13.8153 24.2538L13.8677 24.0701L12.9062 23.7954ZM12.9102 23.7814L13.8717 24.0561L13.918 23.8942L13.9087 23.7261L12.9102 23.7814ZM12.8762 23.1674L13.8747 23.1121L13.8691 23.0109L13.8433 22.9129L12.8762 23.1674ZM12.1412 23.1474L11.6229 24.0026L11.6577 24.0237L11.694 24.0419L12.1412 23.1474ZM12.1142 23.1534L11.2825 22.5982L11.2314 22.6748L11.1951 22.7595L12.1142 23.1534ZM12.1082 23.1674L11.1891 22.7735L11.1195 22.9358L11.1097 23.1121L12.1082 23.1674ZM12.0742 23.7814L11.0757 23.7261L11.0727 23.7815L11.0758 23.8369L12.0742 23.7814ZM12.0912 23.8054L11.7401 24.7418L11.9749 24.8298L12.2234 24.7966L12.0912 23.8054ZM12.1062 23.8034L12.2384 24.7946L12.3886 24.7746L12.5261 24.711L12.1062 23.8034ZM12.3072 23.7104L12.7271 24.618L12.8372 24.5671L12.9319 24.4913L12.3072 23.7104ZM12.3172 23.7024L12.9419 24.4833L13.1963 24.2798L13.282 23.9655L12.3172 23.7024ZM12.3202 23.6914L13.285 23.9545L13.3146 23.8458L13.3193 23.7333L12.3202 23.6914ZM12.3382 23.2614L13.3373 23.3033L13.3434 23.159L13.3084 23.0189L12.3382 23.2614ZM12.3352 23.2494L13.3054 23.0069L13.2382 22.7382L13.0423 22.5423L12.3352 23.2494ZM12.3252 23.2394L13.0323 22.5323L12.9176 22.4176L12.7724 22.345L12.3252 23.2394ZM12.4278 22.272L12.4158 22.274L12.7447 24.2468L12.7567 24.2448L12.4278 22.272ZM12.1381 22.3635L12.0671 22.3985L12.9514 24.1924L13.0224 24.1574L12.1381 22.3635ZM12.3131 22.3148L12.2931 22.3188L12.6853 24.28L12.7053 24.276L12.3131 22.3148ZM12.7639 22.3379L12.7499 22.3339L12.2005 24.257L12.2145 24.261L12.7639 22.3379ZM12.9274 22.4035L12.8564 22.3675L11.952 24.1513L12.023 24.1873L12.9274 22.4035ZM12.6468 22.2893C12.5332 22.2609 12.3552 22.2369 12.1478 22.2888C11.9234 22.3448 11.7336 22.4729 11.5993 22.6407L13.1611 23.8901C13.0321 24.0513 12.849 24.175 12.6327 24.2291C12.4333 24.2789 12.2646 24.2553 12.1617 24.2296L12.6468 22.2893ZM11.4517 22.8941L11.4477 22.9041L13.3047 23.6468L13.3087 23.6368L11.4517 22.8941ZM11.377 23.2357L11.36 23.6637L13.3584 23.7431L13.3754 23.3151L11.377 23.2357ZM11.3891 23.946L11.3941 23.966L13.3344 23.4809L13.3294 23.4609L11.3891 23.946ZM11.5716 24.3331L11.5816 24.3461L13.1668 23.1267L13.1568 23.1137L11.5716 24.3331ZM11.7945 24.5512L11.8985 24.6252L13.058 22.9956L12.954 22.9216L11.7945 24.5512ZM12.2206 24.7767L12.2356 24.7807L12.7509 22.8482L12.7359 22.8442L12.2206 24.7767ZM12.8094 24.7631L12.8214 24.7591L12.189 22.8617L12.177 22.8657L12.8094 24.7631ZM13.085 24.6252L13.189 24.5512L12.0295 22.9216L11.9255 22.9956L13.085 24.6252ZM13.4092 24.3364L13.4212 24.3204L11.8212 23.1204L11.8092 23.1364L13.4092 24.3364ZM13.5946 23.9494L13.5986 23.9324L11.6518 23.4744L11.6478 23.4914L13.5946 23.9494ZM13.6244 23.6636L13.6074 23.2366L11.609 23.3162L11.626 23.7432L13.6244 23.6636ZM13.5784 23.0339C13.5201 22.8008 13.3006 22.3627 12.7566 22.272L12.4278 24.2448C12.2089 24.2083 12.0057 24.098 11.8548 23.9283C11.7181 23.7745 11.6621 23.6152 11.6381 23.519L13.5784 23.0339ZM12.7149 22.1555L12.7009 22.1575L12.9836 24.1374L12.9976 24.1354L12.7149 22.1555ZM12.3911 22.2549L12.2071 22.3479L13.1093 24.1329L13.2933 24.0399L12.3911 22.2549ZM11.9511 22.5333L11.9411 22.5433L13.3553 23.9575L13.3653 23.9475L11.9511 22.5333ZM11.6834 22.9874L11.6804 22.9984L13.61 23.5245L13.613 23.5135L11.6834 22.9874ZM11.6461 23.3032L11.6641 23.7332L13.6623 23.6496L13.6443 23.2196L11.6461 23.3032ZM11.7402 24.0761L11.7452 24.0881L13.5913 23.3188L13.5863 23.3068L11.7402 24.0761ZM11.9611 24.4105L11.9691 24.4185L13.3834 23.0044L13.3754 22.9964L11.9611 24.4105ZM12.26 24.6207L12.461 24.7127L13.2934 22.8941L13.0924 22.8021L12.26 24.6207ZM12.6227 24.7705C12.7488 24.8037 12.9404 24.8285 13.1599 24.7679C13.3933 24.7035 13.5757 24.5652 13.6988 24.4051L12.1136 23.1857C12.23 23.0343 12.4043 22.9016 12.6281 22.8399C12.8378 22.7821 13.0183 22.8065 13.1317 22.8364L12.6227 24.7705ZM13.8677 24.0701L13.8717 24.0561L11.9487 23.5067L11.9447 23.5207L13.8677 24.0701ZM13.9087 23.7261L13.8747 23.1121L11.8777 23.2227L11.9117 23.8367L13.9087 23.7261ZM13.8433 22.9129C13.7756 22.6559 13.5488 22.2641 13.0523 22.1648L12.6601 24.126C12.4621 24.0864 12.2736 23.9844 12.1288 23.8251C11.9947 23.6776 11.9358 23.5231 11.9091 23.4219L13.8433 22.9129ZM12.6595 22.2922C12.4346 22.1559 12.166 22.1118 11.9096 22.1688L12.3434 24.1212C12.0971 24.1759 11.839 24.1336 11.6229 24.0026L12.6595 22.2922ZM11.9096 22.1688C11.6531 22.2258 11.4285 22.3796 11.2825 22.5982L12.9459 23.7086C12.8057 23.9187 12.5898 24.0664 12.3434 24.1212L11.9096 22.1688ZM11.1951 22.7595L11.1891 22.7735L13.0274 23.5614L13.0334 23.5474L11.1951 22.7595ZM11.1097 23.1121L11.0757 23.7261L13.0727 23.8367L13.1067 23.2227L11.1097 23.1121ZM11.0758 23.8369C11.0842 23.9882 11.1291 24.1855 11.2629 24.3744C11.3993 24.5669 11.5786 24.6812 11.7401 24.7418L12.4423 22.8691C12.5932 22.9257 12.7643 23.034 12.895 23.2184C13.0232 23.3994 13.0649 23.5866 13.0727 23.726L11.0758 23.8369ZM12.2234 24.7966L12.2384 24.7946L11.974 22.8122L11.959 22.8142L12.2234 24.7966ZM12.5261 24.711L12.7271 24.618L11.8873 22.8029L11.6863 22.8959L12.5261 24.711ZM12.9319 24.4913L12.9419 24.4833L11.6926 22.9215L11.6826 22.9295L12.9319 24.4913ZM13.282 23.9655L13.285 23.9545L11.3554 23.4284L11.3524 23.4394L13.282 23.9655ZM13.3193 23.7333L13.3373 23.3033L11.3391 23.2196L11.3211 23.6496L13.3193 23.7333ZM13.3084 23.0189L13.3054 23.0069L11.3651 23.492L11.3681 23.504L13.3084 23.0189ZM13.0423 22.5423L13.0323 22.5323L11.6181 23.9465L11.6281 23.9565L13.0423 22.5423ZM12.7724 22.345L12.5884 22.253L11.694 24.0419L11.878 24.1339L12.7724 22.345Z" fill="#E94C17" mask="url(#path-1-inside-1_1327_4901)"/>
<path d="M15.7855 10.6831L15.7923 10.6858L15.7993 10.6884L16.0163 10.7694L16.0162 10.7696L16.0295 10.7742L18.3895 11.5801C19.0589 11.8089 19.3977 12.3948 19.4047 12.9838L18.0667 12.5268L15.7067 11.7208L15.7066 11.7208C14.9501 11.4626 14.2589 11.0427 13.6812 10.4902C13.1052 9.93926 12.6558 9.26972 12.3642 8.52796L12.2779 8.2884L11.4722 5.93222L11.0148 4.59448C11.5642 4.59923 12.1108 4.89287 12.3675 5.47666L12.4204 5.61772L13.225 7.97067C13.225 7.97071 13.225 7.97074 13.225 7.97078C13.4331 8.57963 13.7693 9.13678 14.211 9.60465C14.6527 10.0726 15.1896 10.4403 15.7855 10.6831ZM19.4048 13.0156C19.4002 13.5651 19.1067 14.1117 18.5234 14.3684L18.3824 14.4213L16.0296 15.2258C15.4205 15.4337 14.8631 15.7699 14.395 16.2116C13.9269 16.6533 13.559 17.1903 13.3161 17.7863L13.3159 17.7862L13.311 17.7994L13.23 18.0154L13.2273 18.0224L13.2249 18.0295L12.419 20.3903C12.1902 21.06 11.6043 21.3987 11.0153 21.4056L11.4723 20.0676L12.2783 17.7076L12.2783 17.7075C12.5365 16.9509 12.9564 16.2598 13.5089 15.6821C14.0599 15.1061 14.7294 14.6567 15.4712 14.365L15.7107 14.2788L18.0669 13.4731L19.4048 13.0156ZM10.9829 21.4056C10.4331 21.4007 9.88635 21.1065 9.63076 20.5221L9.57602 20.3808L8.77332 18.0305C8.77331 18.0304 8.7733 18.0304 8.77329 18.0304C8.56537 17.4213 8.22922 16.864 7.78753 16.3959C7.34582 15.9278 6.80883 15.5599 6.21282 15.317L6.21289 15.3168L6.19969 15.3118L5.98369 15.2308L5.97674 15.2282L5.96973 15.2258L3.60973 14.4198C2.93966 14.191 2.60067 13.6052 2.59377 13.0163L3.93153 13.4732L6.29153 14.2792L6.29166 14.2792C7.04819 14.5374 7.73935 14.9573 8.31703 15.5098C8.89327 16.0609 9.34277 16.7308 9.63441 17.4728L9.72158 17.7123L10.526 20.0676L10.9829 21.4056ZM3.93153 12.5268L2.59373 12.9837C2.59872 12.434 2.8932 11.8873 3.47798 11.6317L3.61935 11.5769L5.96973 10.7742L5.9698 10.7741C6.57869 10.5661 7.13588 10.2299 7.60378 9.78816C8.07168 9.34645 8.43942 8.80954 8.68218 8.21364L8.68236 8.21371L8.68729 8.20056L8.76829 7.98456L8.77091 7.97759L8.77331 7.97054L9.57927 5.60968C9.80799 4.94033 10.3938 4.60141 10.9829 4.59452L10.526 5.9324L9.71996 8.2924L9.71992 8.29253C9.46178 9.04906 9.04183 9.74023 8.48933 10.3179C7.93818 10.8942 7.26835 11.3437 6.52626 11.6353L6.2868 11.7224L3.93153 12.5268ZM18.9988 2.5H18.9991C19.0927 2.5 19.1843 2.52624 19.2637 2.57574C19.3392 2.62281 19.4007 2.68912 19.4419 2.76775L19.4768 2.85278L19.8219 3.86443L19.9012 4.097L20.1338 4.17627L21.1608 4.52627L21.1613 4.52642C21.255 4.55827 21.3372 4.61723 21.3974 4.69583C21.4576 4.77443 21.4931 4.86913 21.4994 4.96793C21.5057 5.06674 21.4826 5.16519 21.4329 5.25082C21.3856 5.33232 21.3163 5.39872 21.233 5.44246L21.1471 5.47743L20.1347 5.82278L19.9021 5.90211L19.8229 6.13471L19.4729 7.16171L19.4728 7.16186C19.4409 7.25558 19.3819 7.33771 19.3033 7.39786C19.2246 7.45801 19.1299 7.49346 19.0311 7.49972C18.9323 7.50599 18.8339 7.48279 18.7483 7.43305C18.6666 7.3856 18.6001 7.31602 18.5564 7.23247L18.5215 7.14722L18.1764 6.13557L18.097 5.903L17.8644 5.82373L16.8374 5.47373L16.837 5.47358C16.7432 5.44173 16.6611 5.38277 16.6009 5.30417C16.5407 5.22557 16.5052 5.13087 16.4988 5.03207C16.4925 4.93327 16.5157 4.83481 16.5654 4.74918C16.6127 4.66768 16.682 4.60128 16.7652 4.55754L16.8512 4.52257L17.8636 4.17722L18.0961 4.09789L18.1754 3.86529L18.5253 2.8385C18.559 2.73971 18.6228 2.65395 18.7077 2.59325C18.7927 2.53254 18.8944 2.49994 18.9988 2.5Z" fill="#8B8B8B" stroke="#E94C17"/>
</svg>
