<svg width="24" height="24" viewBox="0 0 24 24" fill="none" xmlns="http://www.w3.org/2000/svg">
<path d="M13 0C10.4288 0 7.91543 0.762437 5.77759 2.1909C3.63975 3.61935 1.97351 5.64968 0.989572 8.02512C0.0056327 10.4006 -0.251811 13.0144 0.249797 15.5362C0.751405 18.0579 1.98953 20.3743 3.80762 22.1924C5.6257 24.0105 7.94208 25.2486 10.4638 25.7502C12.9856 26.2518 15.5995 25.9944 17.9749 25.0104C20.3503 24.0265 22.3807 22.3603 23.8091 20.2224C25.2376 18.0846 26 15.5712 26 13C25.9964 9.5533 24.6256 6.24882 22.1884 3.81163C19.7512 1.37445 16.4467 0.00363977 13 0ZM23.9538 12H18.975C18.7988 8.4425 17.6913 5.06625 15.835 2.375C18.009 2.95867 19.9523 4.1938 21.4036 5.91443C22.855 7.63506 23.7449 9.75871 23.9538 12ZM13 23.9862C10.6588 21.4525 9.23876 17.8612 9.02876 14H16.9713C16.7613 17.8587 15.3413 21.4525 13 23.9862ZM9.02876 12C9.23876 8.14125 10.6538 4.5475 13 2.01375C15.3413 4.5475 16.7613 8.13875 16.9713 12H9.02876ZM10.165 2.375C8.30876 5.06625 7.20126 8.4425 7.02501 12H2.04626C2.25511 9.75871 3.14501 7.63506 4.59637 5.91443C6.04773 4.1938 7.99099 2.95867 10.165 2.375ZM2.04626 14H7.02501C7.20126 17.5575 8.30876 20.9338 10.165 23.625C7.99099 23.0413 6.04773 21.8062 4.59637 20.0856C3.14501 18.3649 2.25511 16.2413 2.04626 14ZM15.835 23.625C17.6913 20.93 18.7988 17.5537 18.975 14H23.9538C23.7449 16.2413 22.855 18.3649 21.4036 20.0856C19.9523 21.8062 18.009 23.0413 15.835 23.625Z" fill="#17B4E9"/>
</svg>
