<svg width="40" height="41" viewBox="0 0 40 41" fill="none" xmlns="http://www.w3.org/2000/svg">
<g clip-path="url(#clip0_1773_12089)">
<circle cx="19.9097" cy="20.3492" r="19.9097" fill="#F5F5F5"/>
<g clip-path="url(#clip1_1773_12089)">
<path d="M25.2028 24.3515V22.7565C25.2028 22.2106 25.4205 21.6873 25.8146 21.2836C27.2338 19.8314 28.0153 17.9245 28.0153 15.914C28.0153 11.6462 24.5693 8.18953 20.2809 8.18165C16.3733 8.17451 13.3152 10.9985 12.6791 14.4728C12.2197 16.9784 12.9695 19.4564 14.7356 21.272C15.1379 21.6853 15.3591 22.2127 15.3591 22.7579V24.3515C15.3591 25.5166 16.3035 26.4609 17.4684 26.4609H23.0934C24.2584 26.4609 25.2028 25.5166 25.2028 24.3515ZM23.5906 16.4111L22.3903 17.6114V22.9453C22.3903 23.334 22.0757 23.6484 21.6872 23.6484C21.2986 23.6484 20.9841 23.334 20.9841 22.9453V18.0234H19.5778V22.9453C19.5778 23.334 19.2632 23.6484 18.8747 23.6484C18.4861 23.6484 18.1716 23.334 18.1716 22.9453V17.6114L16.9713 16.4111C16.6967 16.1367 16.6967 15.6915 16.9713 15.4169C17.246 15.1424 17.6909 15.1424 17.9656 15.4169L19.1658 16.6171H21.3961L22.5963 15.4169C22.871 15.1424 23.3159 15.1424 23.5906 15.4169C23.8652 15.6915 23.8652 16.1365 23.5906 16.4111Z" fill="#EB5C2D"/>
<path d="M8.98438 16.6172H10.4375C10.826 16.6172 11.1406 16.3028 11.1406 15.9141C11.1406 15.5255 10.826 15.2109 10.4375 15.2109H8.98438C8.59583 15.2109 8.28125 15.5255 8.28125 15.9141C8.28125 16.3028 8.59583 16.6172 8.98438 16.6172Z" fill="#EB5C2D"/>
<path d="M31.5781 15.2109H30.125C29.7365 15.2109 29.4219 15.5255 29.4219 15.9141C29.4219 16.3028 29.7365 16.6172 30.125 16.6172H31.5781C31.9667 16.6172 32.2812 16.3028 32.2812 15.9141C32.2812 15.5255 31.9667 15.2109 31.5781 15.2109Z" fill="#EB5C2D"/>
<path d="M9.9303 21.8909C10.1268 22.2302 10.5582 22.3406 10.8909 22.1485L12.1091 21.4454C12.4454 21.2509 12.5608 20.8212 12.3665 20.4846C12.1715 20.1483 11.7408 20.0329 11.4059 20.2272L10.1877 20.9303C9.85138 21.1246 9.73602 21.5545 9.9303 21.8909Z" fill="#EB5C2D"/>
<path d="M30.6321 9.93807C30.4364 9.60171 30.0059 9.48562 29.6716 9.68062L28.4534 10.3837C28.117 10.578 28.0016 11.008 28.1959 11.3443C28.3924 11.6836 28.8238 11.794 29.1565 11.6019L30.3747 10.8988C30.7111 10.7044 30.8264 10.2746 30.6321 9.93807Z" fill="#EB5C2D"/>
<path d="M10.1877 10.8988L11.4059 11.6019C11.7388 11.7942 12.17 11.6832 12.3665 11.3443C12.5608 11.008 12.4454 10.578 12.1091 10.3837L10.8909 9.68062C10.5551 9.48562 10.1246 9.60171 9.9303 9.93807C9.73602 10.2746 9.85138 10.7044 10.1877 10.8988Z" fill="#EB5C2D"/>
<path d="M28.1959 20.4846C28.0016 20.8212 28.117 21.2509 28.4534 21.4454L29.6716 22.1485C30.0046 22.3408 30.4359 22.2296 30.6321 21.8909C30.8264 21.5545 30.7111 21.1246 30.3747 20.9303L29.1565 20.2272C28.8201 20.0329 28.3902 20.1483 28.1959 20.4846Z" fill="#EB5C2D"/>
<path d="M17.4688 27.8679C17.228 27.8679 16.9929 27.8432 16.7656 27.7969V28.571C16.7656 29.7361 17.7101 30.7742 18.875 30.7742C18.875 31.5507 19.5045 32.1804 20.2812 32.1804C21.058 32.1804 21.6875 31.5507 21.6875 30.7742C22.8524 30.7742 23.7969 29.7361 23.7969 28.571V27.7969C23.5696 27.8432 23.3345 27.8679 23.0938 27.8679H17.4688Z" fill="#EB5C2D"/>
</g>
</g>
<defs>
<clipPath id="clip0_1773_12089">
<rect width="40" height="40" fill="white" transform="translate(0 0.439453)"/>
</clipPath>
<clipPath id="clip1_1773_12089">
<rect width="24" height="24" fill="white" transform="translate(8.28125 8.18164)"/>
</clipPath>
</defs>
</svg>
