<svg width="40" height="41" viewBox="0 0 40 41" fill="none" xmlns="http://www.w3.org/2000/svg">
<circle cx="19.9097" cy="20.8082" r="19.9097" fill="#F5F5F5"/>
<g clip-path="url(#clip0_2088_28091)">
<path d="M15.0098 22.8569C15.0123 22.9077 15.0045 22.9585 14.9868 23.0062C14.9691 23.0538 14.9419 23.0974 14.9068 23.1343C14.8717 23.1711 14.8295 23.2004 14.7828 23.2204C14.736 23.2404 14.6857 23.2507 14.6348 23.2506H10.4985C10.3293 23.2509 10.1649 23.1939 10.0321 23.0889C9.89935 22.9838 9.80602 22.837 9.7673 22.6722C9.74318 22.5594 9.7443 22.4427 9.77055 22.3304C9.79681 22.218 9.84756 22.1129 9.91917 22.0225C10.5809 21.145 11.4588 20.4541 12.4673 20.0172C12.0245 19.6135 11.685 19.1096 11.477 18.5477C11.269 17.9858 11.1987 17.3822 11.272 16.7876C11.3453 16.1929 11.5599 15.6244 11.8981 15.1298C12.2362 14.6352 12.6879 14.2288 13.2154 13.9446C13.7429 13.6605 14.3309 13.5069 14.9299 13.4966C15.529 13.4864 16.1218 13.6199 16.6587 13.8859C17.1956 14.1519 17.6609 14.5427 18.0157 15.0255C18.3705 15.5083 18.6044 16.0691 18.6979 16.6609C18.71 16.7405 18.6957 16.8219 18.6573 16.8926C18.6189 16.9634 18.5584 17.0196 18.4851 17.0528C17.4448 17.5337 16.5639 18.3022 15.9461 19.2675C15.3283 20.2327 14.9995 21.3546 14.9985 22.5006C14.9985 22.6206 14.9985 22.7388 15.0098 22.8569ZM32.0723 22.0216C31.4121 21.1451 30.5362 20.4545 29.5298 20.0172C29.9726 19.6135 30.3121 19.1096 30.5201 18.5477C30.7281 17.9858 30.7984 17.3822 30.7251 16.7876C30.6518 16.1929 30.4371 15.6244 30.099 15.1298C29.7609 14.6352 29.3091 14.2288 28.7816 13.9446C28.2541 13.6605 27.6662 13.5069 27.0672 13.4966C26.4681 13.4864 25.8753 13.6199 25.3384 13.8859C24.8015 14.1519 24.3362 14.5427 23.9814 15.0255C23.6266 15.5083 23.3927 16.0691 23.2992 16.6609C23.2871 16.7405 23.3014 16.8219 23.3398 16.8926C23.3782 16.9634 23.4387 17.0196 23.512 17.0528C24.5522 17.5337 25.4332 18.3022 26.051 19.2675C26.6688 20.2327 26.9976 21.3546 26.9985 22.5006C26.9985 22.6206 26.9985 22.7388 26.9873 22.8569C26.9848 22.9077 26.9926 22.9585 27.0103 23.0062C27.028 23.0538 27.0552 23.0974 27.0903 23.1343C27.1254 23.1711 27.1676 23.2004 27.2143 23.2204C27.2611 23.2404 27.3114 23.2507 27.3623 23.2506H31.4985C31.6678 23.2509 31.8322 23.1939 31.965 23.0889C32.0977 22.9838 32.1911 22.837 32.2298 22.6722C32.2541 22.5592 32.2529 22.4422 32.2265 22.3297C32.2001 22.2172 32.149 22.112 32.077 22.0216H32.0723ZM23.7285 26.0697C24.4753 25.4978 25.0241 24.7063 25.2978 23.8063C25.5714 22.9064 25.5562 21.9434 25.2543 21.0526C24.9524 20.1617 24.3789 19.3879 23.6145 18.8399C22.85 18.2918 21.9331 17.997 20.9925 17.997C20.0518 17.997 19.1349 18.2918 18.3704 18.8399C17.606 19.3879 17.0325 20.1617 16.7306 21.0526C16.4287 21.9434 16.4135 22.9064 16.6871 23.8063C16.9608 24.7063 17.5096 25.4978 18.2564 26.0697C16.9312 26.6438 15.8247 27.6272 15.0989 28.8756C15.033 28.9897 14.9984 29.119 14.9984 29.2507C14.9984 29.3823 15.0331 29.5117 15.0989 29.6257C15.1647 29.7397 15.2594 29.8344 15.3735 29.9002C15.4875 29.966 15.6169 30.0007 15.7485 30.0006H26.2485C26.3802 30.0007 26.5096 29.966 26.6236 29.9002C26.7376 29.8344 26.8323 29.7397 26.8982 29.6257C26.964 29.5117 26.9987 29.3823 26.9987 29.2507C26.9987 29.119 26.9641 28.9897 26.8982 28.8756C26.1708 27.6263 25.0622 26.643 23.7351 26.0697H23.7285Z" fill="#E94C17"/>
</g>
<defs>
<clipPath id="clip0_2088_28091">
<rect width="23" height="22" fill="white" transform="translate(9.28125 9.82031)"/>
</clipPath>
</defs>
</svg>
