<svg width="26" height="26" viewBox="0 0 26 26" fill="none" xmlns="http://www.w3.org/2000/svg">
<path d="M20.5045 5.55141C19.5325 4.56968 18.3765 3.78931 17.1025 3.25498C15.8285 2.72065 14.4617 2.44286 13.0802 2.4375H13C10.1987 2.4375 7.51204 3.55033 5.53118 5.53118C3.55033 7.51204 2.4375 10.1987 2.4375 13V18.6875C2.4375 19.334 2.69431 19.954 3.15143 20.4111C3.60855 20.8682 4.22853 21.125 4.875 21.125H6.5C7.14646 21.125 7.76645 20.8682 8.22357 20.4111C8.68069 19.954 8.9375 19.334 8.9375 18.6875V14.625C8.9375 13.9785 8.68069 13.3585 8.22357 12.9014C7.76645 12.4443 7.14646 12.1875 6.5 12.1875H4.09906C4.25576 10.4934 4.8921 8.879 5.93351 7.53361C6.97492 6.18821 8.37825 5.16753 9.97902 4.5912C11.5798 4.01487 13.3117 3.90676 14.9717 4.27955C16.6317 4.65233 18.1511 5.49057 19.3517 6.69602C20.8192 8.17101 21.7218 10.1147 21.902 12.1875H19.5C18.8535 12.1875 18.2335 12.4443 17.7764 12.9014C17.3193 13.3585 17.0625 13.9785 17.0625 14.625V18.6875C17.0625 19.334 17.3193 19.954 17.7764 20.4111C18.2335 20.8682 18.8535 21.125 19.5 21.125H21.9375C21.9375 21.7715 21.6807 22.3915 21.2236 22.8486C20.7665 23.3057 20.1465 23.5625 19.5 23.5625H13.8125C13.597 23.5625 13.3903 23.6481 13.238 23.8005C13.0856 23.9528 13 24.1595 13 24.375C13 24.5905 13.0856 24.7972 13.238 24.9495C13.3903 25.1019 13.597 25.1875 13.8125 25.1875H19.5C20.5774 25.1875 21.6108 24.7595 22.3726 23.9976C23.1345 23.2358 23.5625 22.2024 23.5625 21.125V13C23.5678 11.6183 23.3004 10.2492 22.7756 8.971C22.2509 7.69284 21.4791 6.53078 20.5045 5.55141ZM6.5 13.8125C6.71549 13.8125 6.92215 13.8981 7.07452 14.0505C7.2269 14.2028 7.3125 14.4095 7.3125 14.625V18.6875C7.3125 18.903 7.2269 19.1097 7.07452 19.262C6.92215 19.4144 6.71549 19.5 6.5 19.5H4.875C4.65951 19.5 4.45285 19.4144 4.30048 19.262C4.1481 19.1097 4.0625 18.903 4.0625 18.6875V13.8125H6.5ZM19.5 19.5C19.2845 19.5 19.0778 19.4144 18.9255 19.262C18.7731 19.1097 18.6875 18.903 18.6875 18.6875V14.625C18.6875 14.4095 18.7731 14.2028 18.9255 14.0505C19.0778 13.8981 19.2845 13.8125 19.5 13.8125H21.9375V19.5H19.5Z" fill="#E94C17"/>
</svg>
