<svg width="28" height="28" viewBox="0 0 28 28" fill="none" xmlns="http://www.w3.org/2000/svg">
<path d="M14 2.84375C11.7935 2.84375 9.63656 3.49805 7.80192 4.72392C5.96729 5.94978 4.53736 7.69215 3.69297 9.73069C2.84858 11.7692 2.62765 14.0124 3.05812 16.1765C3.48859 18.3406 4.55112 20.3284 6.11134 21.8887C7.67157 23.4489 9.65943 24.5114 11.8235 24.9419C13.9876 25.3724 16.2308 25.1514 18.2693 24.307C20.3079 23.4626 22.0502 22.0327 23.2761 20.1981C24.502 18.3634 25.1563 16.2065 25.1563 14C25.1528 11.0422 23.9763 8.20663 21.8848 6.11518C19.7934 4.02373 16.9578 2.84722 14 2.84375ZM23.8219 13.3438H20.7484C20.5947 11.7802 19.9035 10.3183 18.7926 9.20742C17.6817 8.09649 16.2198 7.40526 14.6563 7.25156V4.17813C17.0336 4.34044 19.2718 5.35821 20.9568 7.0432C22.6418 8.72818 23.6596 10.9664 23.8219 13.3438ZM13.3438 13.3438H8.57172C8.72038 12.1298 9.27095 11.0005 10.1357 10.1357C11.0005 9.27095 12.1298 8.72038 13.3438 8.57172V13.3438ZM13.3438 14.6562V19.4283C12.1298 19.2796 11.0005 18.7291 10.1357 17.8643C9.27095 16.9995 8.72038 15.8702 8.57172 14.6562H13.3438ZM14.6563 14.6562H19.4283C19.2796 15.8702 18.7291 16.9995 17.8643 17.8643C16.9995 18.7291 15.8702 19.2796 14.6563 19.4283V14.6562ZM14.6563 13.3438V8.57172C15.8702 8.72038 16.9995 9.27095 17.8643 10.1357C18.7291 11.0005 19.2796 12.1298 19.4283 13.3438H14.6563ZM13.3438 4.17813V7.25156C11.7802 7.40526 10.3184 8.09649 9.20743 9.20742C8.0965 10.3183 7.40527 11.7802 7.25157 13.3438H4.17813C4.34044 10.9664 5.35822 8.72818 7.0432 7.0432C8.72818 5.35821 10.9664 4.34044 13.3438 4.17813ZM4.17813 14.6562H7.25157C7.40527 16.2198 8.0965 17.6817 9.20743 18.7926C10.3184 19.9035 11.7802 20.5947 13.3438 20.7484V23.8219C10.9664 23.6596 8.72818 22.6418 7.0432 20.9568C5.35822 19.2718 4.34044 17.0336 4.17813 14.6562ZM14.6563 23.8219V20.7484C16.2198 20.5947 17.6817 19.9035 18.7926 18.7926C19.9035 17.6817 20.5947 16.2198 20.7484 14.6562H23.8219C23.6596 17.0336 22.6418 19.2718 20.9568 20.9568C19.2718 22.6418 17.0336 23.6596 14.6563 23.8219Z" fill="#E94C17"/>
</svg>
