<svg width="28" height="28" viewBox="0 0 28 28" fill="none" xmlns="http://www.w3.org/2000/svg">
<path d="M24.5005 14.0005C24.5005 14.2326 24.4083 14.4551 24.2442 14.6192C24.0801 14.7833 23.8576 14.8755 23.6255 14.8755H14.0005C13.7684 14.8755 13.5459 14.7833 13.3818 14.6192C13.2177 14.4551 13.1255 14.2326 13.1255 14.0005C13.1255 13.7684 13.2177 13.5459 13.3818 13.3818C13.5459 13.2177 13.7684 13.1255 14.0005 13.1255H23.6255C23.8576 13.1255 24.0801 13.2177 24.2442 13.3818C24.4083 13.5459 24.5005 13.7684 24.5005 14.0005ZM14.0005 7.87549H23.6255C23.8576 7.87549 24.0801 7.7833 24.2442 7.6192C24.4083 7.45511 24.5005 7.23255 24.5005 7.00049C24.5005 6.76842 24.4083 6.54586 24.2442 6.38177C24.0801 6.21767 23.8576 6.12549 23.6255 6.12549H14.0005C13.7684 6.12549 13.5459 6.21767 13.3818 6.38177C13.2177 6.54586 13.1255 6.76842 13.1255 7.00049C13.1255 7.23255 13.2177 7.45511 13.3818 7.6192C13.5459 7.7833 13.7684 7.87549 14.0005 7.87549ZM23.6255 20.1255H14.0005C13.7684 20.1255 13.5459 20.2177 13.3818 20.3818C13.2177 20.5459 13.1255 20.7684 13.1255 21.0005C13.1255 21.2326 13.2177 21.4551 13.3818 21.6192C13.5459 21.7833 13.7684 21.8755 14.0005 21.8755H23.6255C23.8576 21.8755 24.0801 21.7833 24.2442 21.6192C24.4083 21.4551 24.5005 21.2326 24.5005 21.0005C24.5005 20.7684 24.4083 20.5459 24.2442 20.3818C24.0801 20.2177 23.8576 20.1255 23.6255 20.1255ZM9.00642 4.63142L6.12549 7.51346L4.99455 6.38142C4.83036 6.21724 4.60768 6.125 4.37549 6.125C4.14329 6.125 3.92061 6.21724 3.75642 6.38142C3.59224 6.54561 3.5 6.76829 3.5 7.00049C3.5 7.23268 3.59224 7.45536 3.75642 7.61955L5.50642 9.36955C5.58769 9.4509 5.68419 9.51544 5.79041 9.55948C5.89664 9.60351 6.0105 9.62617 6.12549 9.62617C6.24048 9.62617 6.35434 9.60351 6.46056 9.55948C6.56678 9.51544 6.66329 9.4509 6.74455 9.36955L10.2445 5.86955C10.4087 5.70536 10.501 5.48268 10.501 5.25049C10.501 5.01829 10.4087 4.79561 10.2445 4.63142C10.0804 4.46724 9.85768 4.375 9.62549 4.375C9.39329 4.375 9.17061 4.46724 9.00642 4.63142ZM9.00642 11.6314L6.12549 14.5135L4.99455 13.3814C4.83036 13.2172 4.60768 13.125 4.37549 13.125C4.14329 13.125 3.92061 13.2172 3.75642 13.3814C3.59224 13.5456 3.5 13.7683 3.5 14.0005C3.5 14.1155 3.52265 14.2293 3.56664 14.3355C3.61064 14.4417 3.67513 14.5383 3.75642 14.6195L5.50642 16.3695C5.58769 16.4509 5.68419 16.5154 5.79041 16.5595C5.89664 16.6035 6.0105 16.6262 6.12549 16.6262C6.24048 16.6262 6.35434 16.6035 6.46056 16.5595C6.56678 16.5154 6.66329 16.4509 6.74455 16.3695L10.2445 12.8695C10.4087 12.7054 10.501 12.4827 10.501 12.2505C10.501 12.0183 10.4087 11.7956 10.2445 11.6314C10.0804 11.4672 9.85768 11.375 9.62549 11.375C9.39329 11.375 9.17061 11.4672 9.00642 11.6314ZM9.00642 18.6314L6.12549 21.5135L4.99455 20.3814C4.91325 20.3001 4.81674 20.2356 4.71052 20.1916C4.6043 20.1476 4.49046 20.125 4.37549 20.125C4.26052 20.125 4.14667 20.1476 4.04045 20.1916C3.93423 20.2356 3.83772 20.3001 3.75642 20.3814C3.67513 20.4627 3.61064 20.5592 3.56664 20.6655C3.52265 20.7717 3.5 20.8855 3.5 21.0005C3.5 21.1155 3.52265 21.2293 3.56664 21.3355C3.61064 21.4417 3.67513 21.5383 3.75642 21.6196L5.50642 23.3696C5.58769 23.4509 5.68419 23.5154 5.79041 23.5595C5.89664 23.6035 6.0105 23.6262 6.12549 23.6262C6.24048 23.6262 6.35434 23.6035 6.46056 23.5595C6.56678 23.5154 6.66329 23.4509 6.74455 23.3696L10.2445 19.8696C10.4087 19.7054 10.501 19.4827 10.501 19.2505C10.501 19.0183 10.4087 18.7956 10.2445 18.6314C10.0804 18.4672 9.85768 18.375 9.62549 18.375C9.39329 18.375 9.17061 18.4672 9.00642 18.6314Z" fill="#E94C17"/>
</svg>
