<svg width="22" height="22" viewBox="0 0 22 22" fill="none" xmlns="http://www.w3.org/2000/svg">
<path d="M14.2807 13.5245C13.9239 12.9594 13.7394 12.3026 13.75 11.6343C13.7606 10.9661 13.9658 10.3154 14.3404 9.76193C14.7151 9.20847 15.2429 8.77622 15.8594 8.51809C16.4759 8.25996 17.1543 8.18713 17.8115 8.30853C18.4687 8.42993 19.0763 8.74028 19.5599 9.20161C20.0434 9.66294 20.3821 10.2552 20.5343 10.906C20.6865 11.5568 20.6457 12.2378 20.4168 12.8658C20.188 13.4937 19.7811 14.0413 19.2459 14.4416C20.9165 15.3629 22 17.1325 22 19.25V21.3125C22 21.4948 21.9276 21.6697 21.7986 21.7986C21.6697 21.9276 21.4948 22 21.3125 22C21.1302 22 20.9553 21.9276 20.8264 21.7986C20.6974 21.6697 20.625 21.4948 20.625 21.3125V19.25C20.625 16.8795 18.8705 15.125 16.5 15.125C15.2487 15.125 14.7153 15.0975 14.0181 14.9573C12.2994 14.608 10.8103 13.5823 9.08875 11.429C9.02728 11.3592 8.98062 11.2776 8.95159 11.1893C8.92256 11.1009 8.91176 11.0076 8.91985 10.9149C8.92794 10.8222 8.95475 10.7322 8.99865 10.6502C9.04255 10.5682 9.10264 10.4959 9.17527 10.4378C9.2479 10.3797 9.33157 10.337 9.4212 10.3121C9.51084 10.2873 9.60459 10.2809 9.69676 10.2934C9.78894 10.3058 9.87763 10.3368 9.95747 10.3846C10.0373 10.4323 10.1066 10.4957 10.1613 10.571C11.3987 12.1165 12.4341 12.9635 13.508 13.3801C13.7211 13.4516 13.9824 13.4943 14.2807 13.5245ZM16.7351 13.7005C16.8497 13.7142 16.9648 13.7298 17.0802 13.7473L17.1875 13.75C17.7147 13.7488 18.2215 13.5458 18.6037 13.1826C18.9859 12.8194 19.2145 12.3237 19.2425 11.7972C19.2706 11.2707 19.0959 10.7535 18.7545 10.3518C18.413 9.95006 17.9307 9.69435 17.4066 9.63717C16.8825 9.57999 16.3564 9.7257 15.9363 10.0444C15.5163 10.363 15.2343 10.8304 15.1481 11.3506C15.062 11.8707 15.1783 12.4041 15.4732 12.8411C15.7681 13.2782 16.2206 13.5857 16.7351 13.7005ZM13.4475 16.4587C13.6298 16.4587 13.8047 16.5312 13.9336 16.6601C14.0626 16.789 14.135 16.9639 14.135 17.1462C14.1247 17.2545 14.1016 17.3611 14.0662 17.4639C13.8201 17.9864 13.75 18.5281 13.75 19.2541V21.3166C13.75 21.499 13.6776 21.6738 13.5486 21.8028C13.4197 21.9317 13.2448 22.0041 13.0625 22.0041C12.8802 22.0041 12.7053 21.9317 12.5764 21.8028C12.4474 21.6738 12.375 21.499 12.375 21.3166V19.2541C12.375 18.3507 12.474 17.6234 12.7971 16.9221C12.8438 16.7868 12.9315 16.6694 13.0481 16.5863C13.1647 16.5033 13.3043 16.4587 13.4475 16.4587ZM8.19225 7.9365C8.29953 8.07931 8.34703 8.25827 8.32467 8.43548C8.30231 8.6127 8.21186 8.77426 8.07247 8.88595C7.93308 8.99764 7.75569 9.05069 7.57787 9.03388C7.40004 9.01707 7.23574 8.93171 7.11975 8.79587L4.27625 5.2415C4.21478 5.17169 4.16812 5.09013 4.13909 5.00177C4.11006 4.9134 4.09926 4.82006 4.10735 4.7274C4.11544 4.63474 4.14225 4.54468 4.18615 4.46268C4.23005 4.38068 4.29014 4.30844 4.36277 4.25034C4.4354 4.19223 4.51907 4.14947 4.6087 4.12464C4.69834 4.0998 4.79209 4.09342 4.88426 4.10587C4.97644 4.11832 5.06513 4.14934 5.14497 4.19706C5.22481 4.24478 5.29414 4.30821 5.34875 4.3835L8.19225 7.9365ZM1.375 15.125H8.9375C9.11984 15.125 9.2947 15.1974 9.42364 15.3264C9.55257 15.4553 9.625 15.6302 9.625 15.8125C9.625 15.9948 9.55257 16.1697 9.42364 16.2986C9.2947 16.4276 9.11984 16.5 8.9375 16.5H0.6875C0.505164 16.5 0.330295 16.4276 0.201364 16.2986C0.0724328 16.1697 0 15.9948 0 15.8125V0.6875C0 0.505164 0.0724328 0.330295 0.201364 0.201364C0.330295 0.0724328 0.505164 0 0.6875 0L17.1875 0C17.3698 0 17.5447 0.0724328 17.6736 0.201364C17.8026 0.330295 17.875 0.505164 17.875 0.6875V4.8125C17.875 4.99484 17.8026 5.1697 17.6736 5.29864C17.5447 5.42757 17.3698 5.5 17.1875 5.5C17.0052 5.5 16.8303 5.42757 16.7014 5.29864C16.5724 5.1697 16.5 4.99484 16.5 4.8125V1.375H1.375V15.125Z" fill="#E94C17"/>
</svg>
