<svg width="40" height="41" viewBox="0 0 40 41" fill="none" xmlns="http://www.w3.org/2000/svg">
<circle cx="19.9097" cy="20.1676" r="19.9097" fill="#F5F5F5"/>
<g clip-path="url(#clip0_2080_22084)">
<path fill-rule="evenodd" clip-rule="evenodd" d="M9.72978 29.5579V24.9274C9.72978 24.778 9.85081 24.657 10.0002 24.657H12.6387C12.788 24.657 12.9091 24.778 12.9091 24.9274V29.5579H9.72978ZM15.6344 29.5579V21.7302C15.6344 21.6585 15.6629 21.5897 15.7137 21.539C15.7643 21.4883 15.8331 21.4598 15.9048 21.4598H18.5434C18.6151 21.4598 18.6839 21.4883 18.7346 21.539C18.7853 21.5897 18.8138 21.6585 18.8138 21.7302V29.5579H15.6344ZM21.5377 29.5579V18.3931C21.5377 18.3214 21.5662 18.2526 21.617 18.202C21.6677 18.1512 21.7364 18.1227 21.8081 18.1227H24.4481C24.5198 18.1227 24.5886 18.1512 24.6392 18.202C24.69 18.2526 24.7185 18.3214 24.7185 18.3931V29.5579H21.5377ZM27.4425 29.5579V15.3908C27.4425 15.3191 27.471 15.2503 27.5216 15.1995C27.5724 15.1489 27.6411 15.1204 27.7129 15.1204H30.3514C30.4231 15.1204 30.4919 15.1489 30.5426 15.1995C30.5933 15.2503 30.6218 15.3191 30.6218 15.3908V29.5579H27.4425ZM8.17578 31.3543V30.6936C8.17578 30.5442 8.29681 30.4232 8.44618 30.4232H31.9054C32.0548 30.4232 32.1758 30.5442 32.1758 30.6936V31.3543C32.1758 31.5036 32.0548 31.6247 31.9054 31.6247H8.44618C8.29681 31.6247 8.17578 31.5036 8.17578 31.3543ZM25.548 12.2956C25.4876 12.2551 25.4135 12.2406 25.3423 12.2555C25.2712 12.2702 25.2089 12.3131 25.1697 12.3742C23.9914 14.1874 22.2611 15.8291 20.088 17.0419C17.4957 18.4875 14.7157 19.077 12.2154 18.8807C12.0778 18.8703 11.9704 18.7576 11.9664 18.6197C11.9625 18.4819 12.0633 18.3633 12.2 18.345C13.7815 18.108 15.3948 17.5678 17.0924 16.6209C19.255 15.4145 21.7615 13.0713 23.117 10.9816C23.1954 10.8578 23.1609 10.6941 23.0391 10.6126C22.8416 10.4799 22.5443 10.2807 22.2968 10.115C22.2121 10.0582 22.1665 9.95872 22.1789 9.85753C22.1912 9.75635 22.2594 9.67074 22.3553 9.63602L25.8479 8.37162C25.9261 8.34334 26.0129 8.35253 26.0834 8.39655C26.1538 8.44063 26.2001 8.51461 26.2089 8.59725L26.6226 12.4818C26.6338 12.5862 26.5834 12.6877 26.4935 12.7419C26.4036 12.7962 26.2904 12.7935 26.2031 12.735L25.548 12.2956Z" fill="#E94C17"/>
</g>
<defs>
<clipPath id="clip0_2080_22084">
<rect width="23" height="22" fill="white" transform="translate(9.28125 9.17969)"/>
</clipPath>
</defs>
</svg>
