<svg width="40" height="41" viewBox="0 0 40 41" fill="none" xmlns="http://www.w3.org/2000/svg">
<g clip-path="url(#clip0_2088_28369)">
<circle cx="19.9097" cy="20.4254" r="19.9097" fill="#F5F5F5"/>
<path d="M28.6207 11.0125C28.6207 10.8123 28.5412 10.6204 28.3997 10.4788C28.2582 10.3373 28.0662 10.2578 27.8661 10.2578C27.6659 10.2578 27.474 10.3373 27.3325 10.4788C27.1909 10.6204 27.1114 10.8123 27.1114 11.0125V11.7671H26.3568C26.1566 11.7671 25.9647 11.8466 25.8232 11.9881C25.6817 12.1297 25.6021 12.3216 25.6021 12.5217C25.6021 12.7219 25.6817 12.9138 25.8232 13.0554C25.9647 13.1969 26.1566 13.2764 26.3568 13.2764H27.1114V14.031C27.1114 14.2312 27.1909 14.4231 27.3325 14.5646C27.474 14.7062 27.6659 14.7857 27.8661 14.7857C28.0662 14.7857 28.2582 14.7062 28.3997 14.5646C28.5412 14.4231 28.6207 14.2312 28.6207 14.031V13.2764H29.3754C29.5755 13.2764 29.7674 13.1969 29.909 13.0554C30.0505 12.9138 30.13 12.7219 30.13 12.5217C30.13 12.3216 30.0505 12.1297 29.909 11.9881C29.7674 11.8466 29.5755 11.7671 29.3754 11.7671H28.6207V11.0125ZM14.1497 11.6554C14.2976 10.9415 14.9224 10.2578 15.7918 10.2578C16.6611 10.2578 17.286 10.9415 17.4354 11.6554C17.6219 12.5803 18.0753 13.4303 18.7394 14.1005C19.4094 14.7652 20.2594 15.219 21.1845 15.406C21.8984 15.5539 22.5821 16.1787 22.5821 17.0511C22.5821 17.9205 21.8984 18.5453 21.1845 18.6932C20.2594 18.8802 19.4094 19.334 18.7394 19.9987C18.0753 20.6689 17.6219 21.5189 17.4354 22.4438C17.2875 23.1562 16.6626 23.8414 15.7903 23.8414C14.9209 23.8414 14.2961 23.1577 14.1482 22.4438C13.9615 21.5182 13.5076 20.6676 12.8426 19.9972C12.1725 19.3331 11.3225 18.8797 10.3976 18.6932C9.68522 18.5453 9.00151 17.922 9 17.0526C8.99849 16.1802 9.68371 15.5539 10.3976 15.406C11.3225 15.2195 12.1725 14.7661 12.8426 14.102C13.5074 13.432 13.9612 12.582 14.1482 11.6569M24.0929 17.0496C24.0929 16.784 24.0627 16.5324 24.0023 16.295H24.8475C25.8482 16.295 26.808 16.6925 27.5156 17.4001C28.2232 18.1077 28.6207 19.0675 28.6207 20.0682V26.1053C28.6207 27.106 28.2232 28.0658 27.5156 28.7734C26.808 29.481 25.8482 29.8785 24.8475 29.8785H18.8104C17.8096 29.8785 16.8499 29.481 16.1423 28.7734C15.4347 28.0658 15.0371 27.106 15.0371 26.1053V25.2601C15.5329 25.3816 16.0507 25.3816 16.5464 25.2601V26.1053C16.5464 26.7057 16.785 27.2816 17.2095 27.7062C17.6341 28.1307 18.2099 28.3692 18.8104 28.3692H24.8475C25.4479 28.3692 26.0238 28.1307 26.4483 27.7062C26.8729 27.2816 27.1114 26.7057 27.1114 26.1053V20.0682C27.1114 19.4677 26.8729 18.8919 26.4483 18.4673C26.0238 18.0428 25.4479 17.8042 24.8475 17.8042H24.0023C24.0627 17.5668 24.0929 17.3152 24.0929 17.0496ZM19.565 21.5775C19.565 21.3773 19.6445 21.1854 19.786 21.0438C19.9276 20.9023 20.1195 20.8228 20.3196 20.8228H24.0929C24.293 20.8228 24.4849 20.9023 24.6265 21.0438C24.768 21.1854 24.8475 21.3773 24.8475 21.5775C24.8475 21.7776 24.768 21.9695 24.6265 22.1111C24.4849 22.2526 24.293 22.3321 24.0929 22.3321H20.3196C20.1195 22.3321 19.9276 22.2526 19.786 22.1111C19.6445 21.9695 19.565 21.7776 19.565 21.5775ZM20.3196 23.8414C20.1195 23.8414 19.9276 23.9209 19.786 24.0624C19.6445 24.2039 19.565 24.3959 19.565 24.596C19.565 24.7962 19.6445 24.9881 19.786 25.1296C19.9276 25.2712 20.1195 25.3507 20.3196 25.3507H22.5836C22.7837 25.3507 22.9757 25.2712 23.1172 25.1296C23.2587 24.9881 23.3382 24.7962 23.3382 24.596C23.3382 24.3959 23.2587 24.2039 23.1172 24.0624C22.9757 23.9209 22.7837 23.8414 22.5836 23.8414H20.3196ZM11.2639 26.86C11.4641 26.86 11.656 26.9395 11.7975 27.081C11.9391 27.2225 12.0186 27.4145 12.0186 27.6146V28.3692H12.7732C12.9734 28.3692 13.1653 28.4487 13.3068 28.5903C13.4484 28.7318 13.5279 28.9237 13.5279 29.1239C13.5279 29.324 13.4484 29.516 13.3068 29.6575C13.1653 29.799 12.9734 29.8785 12.7732 29.8785H12.0186V30.6332C12.0186 30.8333 11.9391 31.0253 11.7975 31.1668C11.656 31.3083 11.4641 31.3878 11.2639 31.3878C11.0638 31.3878 10.8718 31.3083 10.7303 31.1668C10.5888 31.0253 10.5093 30.8333 10.5093 30.6332V29.8785H9.75465C9.5545 29.8785 9.36256 29.799 9.22103 29.6575C9.07951 29.516 9 29.324 9 29.1239C9 28.9237 9.07951 28.7318 9.22103 28.5903C9.36256 28.4487 9.5545 28.3692 9.75465 28.3692H10.5093V27.6146C10.5093 27.4145 10.5888 27.2225 10.7303 27.081C10.8718 26.9395 11.0638 26.86 11.2639 26.86Z" fill="#E94C17"/>
</g>
<defs>
<clipPath id="clip0_2088_28369">
<rect width="40" height="40" fill="white" transform="translate(0 0.257812)"/>
</clipPath>
</defs>
</svg>
