<svg width="40" height="41" viewBox="0 0 40 41" fill="none" xmlns="http://www.w3.org/2000/svg">
<g clip-path="url(#clip0_1773_12064)">
<circle cx="19.9097" cy="20.2691" r="19.9097" fill="#F5F5F5"/>
<g clip-path="url(#clip1_1773_12064)">
<path d="M20.7875 20.157C20.7836 20.1529 20.7824 20.1474 20.7784 20.1434L16.7657 16.1307V13.6093C16.7657 13.4225 16.6916 13.244 16.5597 13.1122L12.341 8.84657C12.1405 8.64614 11.8377 8.58501 11.5747 8.69418C11.3117 8.80265 11.1407 9.05948 11.1407 9.34373V11.4531H8.98446C8.70026 11.4531 8.44343 11.624 8.33496 11.887C8.22579 12.15 8.28621 12.4522 8.4874 12.6533L12.753 16.9189C12.8849 17.0508 13.0634 17.1249 13.2501 17.1249H15.7715L19.7842 21.1376C19.7882 21.1417 19.7937 21.1428 19.7978 21.1467C20.0716 21.408 20.4874 21.4115 20.7648 21.1467C21.0569 20.8679 21.0504 20.4324 20.7875 20.157Z" fill="#E94C17"/>
<path d="M20.2812 8.64062C18.482 8.64062 16.781 9.09836 15.2492 9.81334L17.4061 11.9702C18.3114 11.6692 19.2762 11.5 20.2812 11.5C25.3212 11.5 29.4217 15.6006 29.4217 20.6405C29.4217 25.6805 25.3212 29.7811 20.2812 29.7811C15.2412 29.7811 11.1406 25.6805 11.1406 20.6405C11.1406 19.6355 11.3098 18.6707 11.6108 17.7655L9.45392 15.6085C8.73903 17.1404 8.28125 18.8414 8.28125 20.6405C8.28125 27.2316 13.6901 32.6405 20.2812 32.6405C26.8722 32.6405 32.2811 27.2316 32.2811 20.6405C32.2811 14.0495 26.8723 8.64062 20.2812 8.64062Z" fill="#E94C17"/>
<path d="M20.2812 14.3125C19.538 14.3125 18.8349 14.4648 18.1718 14.7012V15.5485L19.7973 17.1739C19.957 17.1516 20.1155 17.125 20.2812 17.125C22.2196 17.125 23.7968 18.7022 23.7968 20.6406C23.7968 22.579 22.2196 24.1562 20.2812 24.1562C18.3428 24.1562 16.7656 22.579 16.7656 20.6406C16.7656 20.4749 16.7922 20.3163 16.8145 20.1567L15.1891 18.5312H14.3419C14.1055 19.1943 13.9531 19.8974 13.9531 20.6406C13.9531 24.1301 16.7917 26.9687 20.2812 26.9687C23.7707 26.9687 26.6093 24.1301 26.6093 20.6406C26.6093 17.1511 23.7707 14.3125 20.2812 14.3125Z" fill="#E94C17"/>
</g>
</g>
<defs>
<clipPath id="clip0_1773_12064">
<rect width="40" height="40" fill="white" transform="translate(0 0.71875)"/>
</clipPath>
<clipPath id="clip1_1773_12064">
<rect width="24" height="24" fill="white" transform="translate(8.28125 8.64062)"/>
</clipPath>
</defs>
</svg>
