<svg width="40" height="41" viewBox="0 0 40 41" fill="none" xmlns="http://www.w3.org/2000/svg">
<g clip-path="url(#clip0_1773_12102)">
<circle cx="19.9097" cy="20.3492" r="19.9097" fill="#F5F5F5"/>
<g clip-path="url(#clip1_1773_12102)">
<path fill-rule="evenodd" clip-rule="evenodd" d="M9.72978 29.7415V25.111C9.72978 24.9616 9.85081 24.8406 10.0002 24.8406H12.6387C12.788 24.8406 12.9091 24.9616 12.9091 25.111V29.7415H9.72978ZM15.6344 29.7415V21.9138C15.6344 21.8421 15.6629 21.7733 15.7137 21.7226C15.7643 21.6719 15.8331 21.6434 15.9048 21.6434H18.5434C18.6151 21.6434 18.6839 21.6719 18.7346 21.7226C18.7853 21.7733 18.8138 21.8421 18.8138 21.9138V29.7415H15.6344ZM21.5377 29.7415V18.5767C21.5377 18.505 21.5662 18.4362 21.617 18.3856C21.6677 18.3348 21.7364 18.3063 21.8081 18.3063H24.4481C24.5198 18.3063 24.5886 18.3348 24.6392 18.3856C24.69 18.4362 24.7185 18.505 24.7185 18.5767V29.7415H21.5377ZM27.4425 29.7415V15.5744C27.4425 15.5027 27.471 15.4339 27.5216 15.3831C27.5724 15.3325 27.6411 15.304 27.7129 15.304H30.3514C30.4231 15.304 30.4919 15.3325 30.5426 15.3831C30.5933 15.4339 30.6218 15.5027 30.6218 15.5744V29.7415H27.4425ZM8.17578 31.5379V30.8772C8.17578 30.7278 8.29681 30.6068 8.44618 30.6068H31.9054C32.0548 30.6068 32.1758 30.7278 32.1758 30.8772V31.5379C32.1758 31.6872 32.0548 31.8083 31.9054 31.8083H8.44618C8.29681 31.8083 8.17578 31.6872 8.17578 31.5379ZM25.548 12.4792C25.4876 12.4387 25.4135 12.4242 25.3423 12.4391C25.2712 12.4538 25.2089 12.4966 25.1697 12.5578C23.9914 14.371 22.2611 16.0127 20.088 17.2255C17.4957 18.6711 14.7157 19.2606 12.2154 19.0643C12.0778 19.0539 11.9704 18.9412 11.9664 18.8033C11.9625 18.6655 12.0633 18.5469 12.2 18.5286C13.7815 18.2916 15.3948 17.7514 17.0924 16.8045C19.255 15.598 21.7615 13.2549 23.117 11.1652C23.1954 11.0414 23.1609 10.8777 23.0391 10.7961C22.8416 10.6635 22.5443 10.4643 22.2968 10.2986C22.2121 10.2418 22.1665 10.1423 22.1789 10.0411C22.1912 9.93994 22.2594 9.85434 22.3553 9.81962L25.8479 8.55522C25.9261 8.52693 26.0129 8.53613 26.0834 8.58015C26.1538 8.62422 26.2001 8.69821 26.2089 8.78084L26.6226 12.6654C26.6338 12.7698 26.5834 12.8713 26.4935 12.9255C26.4036 12.9798 26.2904 12.9771 26.2031 12.9186L25.548 12.4792Z" fill="#E94C17"/>
</g>
</g>
<defs>
<clipPath id="clip0_1773_12102">
<rect width="40" height="40" fill="white" transform="translate(0 0.439453)"/>
</clipPath>
<clipPath id="clip1_1773_12102">
<rect width="23" height="22" fill="white" transform="translate(9.28125 9.36133)"/>
</clipPath>
</defs>
</svg>
